<svg width="125" height="31" viewBox="0 0 125 31" fill="none" xmlns="http://www.w3.org/2000/svg">
<path d="M122.588 8.61885C122.894 8.61885 123.115 8.48285 123.115 8.22786C123.115 7.97286 122.928 7.83686 122.656 7.83686H121.977V8.61885H122.588ZM121.569 7.49687H122.707C123.336 7.49687 123.556 7.88786 123.556 8.15986C123.556 8.35532 123.48 8.54305 123.344 8.68284C123.207 8.82264 123.021 8.9034 122.826 8.90784C123.047 8.99284 123.2 9.21384 123.42 9.55383L123.726 10.0468H123.217L122.996 9.65583C122.673 9.07784 122.554 8.95884 122.232 8.95884H121.977V10.0468H121.569V7.49687ZM122.605 6.74888C122.213 6.75224 121.831 6.87173 121.506 7.09231C121.181 7.3129 120.929 7.62469 120.782 7.98841C120.634 8.35213 120.597 8.7515 120.675 9.13619C120.754 9.52088 120.945 9.87369 121.223 10.1502C121.502 10.4266 121.856 10.6144 122.241 10.6897C122.626 10.7651 123.024 10.7248 123.387 10.5737C123.749 10.4227 124.058 10.1678 124.276 9.84107C124.493 9.51436 124.609 9.1305 124.609 8.73785C124.609 8.47521 124.557 8.21518 124.456 7.97275C124.356 7.73033 124.208 7.51031 124.021 7.32539C123.835 7.14047 123.614 6.99432 123.371 6.89538C123.128 6.79643 122.868 6.74664 122.605 6.74888ZM122.605 11.1178C122.136 11.1144 121.678 10.972 121.289 10.7085C120.9 10.4449 120.598 10.0721 120.421 9.6369C120.243 9.20173 120.199 8.72375 120.292 8.26321C120.386 7.80267 120.614 7.38019 120.947 7.04904C121.28 6.7179 121.704 6.49291 122.165 6.40245C122.625 6.31199 123.103 6.3601 123.536 6.54072C123.97 6.72135 124.34 7.02639 124.6 7.4174C124.861 7.8084 125 8.26786 125 8.73785C125 9.05182 124.938 9.3627 124.817 9.65256C124.697 9.94242 124.52 10.2055 124.298 10.4268C124.075 10.648 123.811 10.8229 123.52 10.9415C123.23 11.0601 122.919 11.12 122.605 11.1178ZM20.1255 20.1106C18.4102 23.7486 17.2043 23.3406 16.9496 23.3066C16.0834 23.0006 16.1344 22.0826 16.1344 21.6406C16.474 17.8327 18.6989 15.1297 19.4801 14.2967C19.6232 14.1357 19.8041 14.0129 20.0066 13.9398C20.9238 13.7188 21.2974 14.9087 21.2974 14.9087C21.3144 17.1697 20.4142 19.4307 20.1255 20.1106ZM42.1364 18.6657C42.1364 18.6657 40.2173 24.0546 38.6208 23.6976C38.4937 23.6478 38.3781 23.5726 38.2811 23.4766C37.9584 23.1536 37.4659 22.3036 38.6548 19.9066L39.2662 18.5637C39.5912 17.7839 39.8636 16.9831 40.0814 16.1667C40.455 14.8067 39.9795 14.1268 39.9795 14.1268C39.7077 13.7698 38.8416 12.9708 37.0583 13.7358C36.9394 13.8038 36.5488 13.9908 35.7166 14.7217C35.5977 14.4327 35.4958 14.3647 35.7845 13.5488C36.0732 12.7328 38.5529 5.4739 38.5529 5.4739L36.8375 4.69192L30.8762 21.3686C30.8762 21.3686 30.3667 22.6436 29.3307 23.1366C28.2947 23.6296 25.849 24.7856 27.4965 20.6036L30.1629 13.2088H31.4197L31.6235 12.6138H30.3327L31.7254 8.55085L30.061 7.68386L28.3626 12.5458H26.7662L26.5624 13.1918H28.1249L25.4244 20.5526C25.4244 20.5526 23.8619 24.1056 21.5012 23.4086C21.2464 23.2046 20.8049 23.1706 21.6371 21.1136L24.1677 13.6508H22.3164C22.3164 13.6508 22.2315 14.3137 21.9088 14.3647C21.8406 14.3773 21.7702 14.3714 21.705 14.3477L21.6541 14.2627C21.5522 14.0928 20.5162 12.4778 18.4102 13.5828C17.2721 14.2656 16.3221 15.2216 15.646 16.3644C14.9699 17.5071 14.589 18.8005 14.5379 20.1276C14.5273 20.4341 14.5387 20.7408 14.5719 21.0456C14.5719 21.0456 14.7247 22.0486 14.9964 22.5756C15.455 23.4256 16.0834 24.2246 17.3402 23.9526C17.8837 23.7996 18.4611 23.6296 19.5311 22.5246H19.8878C19.8878 22.5246 20.0746 24.7516 22.8259 23.8506C23.1826 23.7316 24.0318 23.5106 25.0678 21.9976H25.4754C25.4754 21.9976 25.5094 24.4116 27.8191 24.0886C28.5866 23.9476 29.3157 23.6464 29.9591 23.2046H30.4346V23.9356H32.4387C32.4387 23.9356 34.3918 16.0987 36.6677 14.5687C36.9904 14.3647 37.4319 14.0758 37.9754 14.3647C38.5189 14.6537 38.434 15.5207 38.2981 15.9797C38.1622 16.4387 37.313 18.9207 36.5827 20.6886C36.4709 21.0271 36.3858 21.3738 36.328 21.7256C36.1921 23.0686 36.5658 24.5986 39.0624 24.4456C39.9285 24.3436 40.6588 23.6636 41.6948 21.7766C42.2063 20.8013 42.6161 19.776 42.9177 18.7167L42.1364 18.6487M53.1249 1.27498L43.6819 28.7125H47.9109L51.3756 17.9347C51.3756 17.9347 51.6983 16.6257 53.8382 14.9937C54.3307 14.6027 55.2478 13.7188 55.6215 15.3167C57.213 20.2528 57.9034 25.4354 57.6595 30.6165L62.4999 27.3015C62.4999 27.3015 60.4449 16.8127 56.6065 12.8008C56.8443 12.5798 64.8097 5.7629 69.735 4.01193C69.5821 3.51894 68.5461 0 68.5461 0C68.5461 0 62.5678 1.98897 57.6935 8.39785C55.9442 10.5058 54.5176 12.1718 53.6004 12.6648C53.4476 12.1208 55.2478 6.01789 57.0481 1.27498H53.1249Z" fill="black"/>
<path d="M68.0877 8.72159C67.6122 9.67357 67.6631 10.6596 68.2066 10.9316C68.7501 11.2035 69.5823 10.6766 70.0748 9.72457C70.5673 8.77259 70.4994 7.78661 69.9559 7.51461C69.4124 7.24261 68.5633 7.76961 68.0877 8.72159ZM104.976 17.4934C104.365 21.9304 102.327 23.3413 101.885 23.5793C98.7943 24.8543 99.4566 21.4714 99.5246 21.1314C100.629 16.4225 102.887 14.3315 102.887 14.3315C103.142 14.1105 103.72 13.7365 104.569 14.4675C105.418 15.1985 105.112 16.4225 104.976 17.4934ZM85.0035 23.2903C84.3411 23.9703 83.6958 23.9193 83.2542 23.7493C82.9608 23.6444 82.694 23.4761 82.4729 23.2563C81.7087 22.4573 81.7256 21.9304 81.8445 21.5904C81.8924 21.4452 81.9611 21.3078 82.0483 21.1824C82.5409 20.5024 82.8466 20.7404 83.1183 20.8934C84.1203 21.4884 84.9695 21.3694 85.1394 20.6044C85.3092 19.8394 84.9526 19.4994 83.8486 19.3124C82.7447 19.1254 83.6278 18.3264 83.6278 18.3264L86.9227 14.1955C87.4492 13.7535 87.6699 14.2295 87.8228 14.7225C87.8831 14.956 87.9173 15.1954 87.9247 15.4365C88.0436 19.8054 85.9546 22.3383 85.0035 23.2903ZM74.6944 21.5564C73.7603 23.6303 72.3336 22.9163 72.1298 22.6613C71.0599 21.1994 73.6584 15.9635 74.6944 14.5695C75.7304 13.1755 76.5286 14.6035 76.5286 14.6035C77.3778 16.0995 75.7474 19.2614 74.6944 21.5564ZM118.835 18.7344C118.767 18.5474 118.631 18.4794 118.309 19.1424C117.986 19.8054 116.271 23.3583 114.912 23.8853C114.785 23.926 114.65 23.938 114.518 23.9204C114.386 23.9027 114.259 23.8559 114.148 23.7833C113.757 23.4943 113.298 22.7973 114.165 20.9954C115.336 18.5814 116.882 15.6915 115.897 14.3485C114.912 13.0055 113.162 13.4985 111.413 14.8415V13.9065H109.137C109.137 13.9065 108.543 18.5134 105.86 18.4454C105.83 18.4502 105.801 18.4492 105.772 18.4424C105.743 18.4355 105.717 18.423 105.693 18.4056C105.669 18.3882 105.649 18.3662 105.634 18.3409C105.619 18.3156 105.609 18.2876 105.605 18.2584C105.639 18.1054 106.624 13.3795 103.057 13.3795C102.718 13.3795 98.5395 13.8555 97.3337 20.6214C96.8921 21.1484 93.6652 25.0413 93.0538 22.8313C92.9837 22.6159 92.9837 22.3838 93.0538 22.1683L96.0429 13.2945H97.4016L97.6564 12.6655H96.2128L97.5545 8.46659L95.8561 7.51461L94.2087 12.5975H92.4763L92.2216 13.2435H94.0728L91.6272 19.8054C91.6272 19.8054 91.0157 21.6414 88.8248 21.0464C89.0456 20.6554 90.2515 19.2784 88.5871 15.1815L88.1625 14.2805C87.9926 13.8895 87.8568 13.2945 88.2134 12.4615C88.2943 12.3209 88.4044 12.1992 88.5361 12.1045C89.0117 11.8495 89.1985 11.6795 89.3853 11.2885C89.7929 10.5236 89.657 9.65657 89.0796 9.36758C88.5021 9.07858 87.7209 9.45257 87.3303 10.2176C87.2003 10.436 87.122 10.6813 87.1014 10.9347C87.0808 11.1882 87.1184 11.4429 87.2114 11.6795C87.2114 11.6795 87.5171 12.2405 87.1944 12.6655L79.5178 22.5253C79.5178 22.5253 78.5157 24.0213 77.4118 23.2393C77.208 23.0353 76.7154 22.9503 77.5646 20.6894L82.5239 5.66164L80.7406 4.09767L77.4797 13.4645C77.4797 13.4645 77.2759 14.3485 76.6985 13.8385C76.6985 13.8385 75.0341 12.4275 72.6733 14.5865C71.2439 15.9319 70.3154 17.7248 70.0408 19.6694C70.0408 19.6694 68.1047 22.8993 66.9328 23.4773C65.7609 24.0553 65.2854 23.2563 65.9478 21.3694L68.2915 14.6715L66.2195 13.8045C66.2195 13.8045 64.64 18.1054 63.8758 21.4204C63.7739 21.9644 63.4172 23.3753 65.0137 24.1573C65.3703 24.2933 66.5592 24.6163 67.765 23.3073C68.0198 23.1033 69.1067 21.8624 69.1067 21.8624C69.1067 21.8624 69.8031 21.1994 69.922 21.8284C70.0408 22.4573 70.6013 24.9223 72.996 24.2083C73.2168 24.1063 73.6923 23.9193 74.6774 22.9333C74.7623 22.8483 75.102 22.4403 75.3737 22.7803C75.3737 22.9333 75.4417 24.0893 77.191 24.3953C77.5307 24.4123 78.2949 24.6333 80.3839 22.5423C80.7066 22.2193 81.0123 21.8624 81.2841 22.1853C81.5558 22.5083 81.8615 23.8513 83.6448 24.5313C83.9632 24.6576 84.3046 24.7155 84.6468 24.7013C85.3602 24.6333 86.8717 24.1913 88.604 21.8114C89.5284 21.9496 90.4724 21.7761 91.2875 21.3184C91.2365 21.6074 90.9478 23.3073 92.3574 24.0553C92.7419 24.2228 93.1648 24.2816 93.5803 24.2253C94.3276 24.1233 95.5334 23.6303 96.8072 21.9304C96.8751 21.8284 97.0789 21.5224 97.4696 21.8114C97.4865 22.0154 97.5375 23.3243 99.1849 24.1573C99.6774 24.3953 101.41 25.3813 103.465 23.2563C103.737 22.9333 104.688 21.8794 105.282 19.3974C105.685 18.9979 106.181 18.7057 106.726 18.5474C106.912 18.4794 107.728 18.2584 107.541 18.6154L105.775 24.1403L108.084 23.9873L109.953 18.1904C109.953 18.1904 111.481 14.1785 113.553 14.4845C113.553 14.4845 114.029 14.5525 114.148 14.9265C114.266 15.3005 114.283 15.8955 113.655 17.1194C112.789 18.8704 111.396 21.6414 111.906 23.0353C111.906 23.0353 112.262 24.3103 113.944 24.4633C114.603 24.488 115.253 24.297 115.795 23.9193C117.103 23.0863 118.716 20.6554 118.869 19.1254C118.888 18.9942 118.876 18.8604 118.835 18.7344ZM20.9239 1.25872C22.5034 1.78571 24.3207 3.09469 23.4205 6.61363C23.4205 6.61363 22.6733 7.7866 18.801 8.2116C19.3105 6.95362 20.5333 4.23367 18.6142 2.82269C18.2745 2.6697 17.0517 2.3467 12.9586 5.79764C12.3132 6.39263 4.82338 13.1755 4.82338 23.0523C4.82338 24.4463 5.07813 29.0702 9.05232 28.6792C9.64675 28.5942 12.5 28.2202 14.8268 24.8883L16.7629 26.2143C16.7629 26.2143 14.3512 29.8862 8.47487 30.3452C8.16917 30.3792 2.78533 30.9572 0.747284 25.6363C0.287706 24.4471 0.0349588 23.1879 0 21.9134C0 21.4544 0 21.2164 0.0169837 20.8254C0 19.6694 2.13995 5.62764 15.9987 1.61571C15.9987 1.61571 19.0387 0.646732 20.9239 1.25872Z" fill="black"/>
</svg>
