<svg width="40" height="30" viewBox="0 0 40 30" fill="none" xmlns="http://www.w3.org/2000/svg">
<path d="M35.5647 0.253007H30.2183V1.12203H31.6363V28.0463C31.6008 28.625 31.3817 28.8428 30.5094 28.8791H30.2183V29.6381H36.2554V28.8791H35.6366C34.6183 28.8428 34.2552 28.4446 34.2187 27.5392V17.1176H35.9642C38.5101 17.1176 40 15.8866 40 14.2575V3.36609C40 1.73805 38.7282 0.253007 35.5647 0.253007ZM37.4187 8.57803V14.3675C37.4187 15.2728 36.8365 16.1407 35.7097 16.1055H34.2187V1.12093H35.5635C36.5819 1.12093 37.4187 1.95255 37.4187 2.96568V8.57803ZM4.10991 17.1176H5.67396V27.6481C5.71049 28.5524 4.98326 29.3125 4.07339 29.3488H4.03686C3.1292 29.3488 2.47392 28.5898 2.47392 27.6481V2.93048C2.47392 2.24296 2.61892 0.651217 3.78227 0.686418C4.72867 0.686418 5.41938 1.55544 5.71049 2.89528C6.03703 4.27031 6.25508 7.4912 6.25508 8.90144C6.25508 9.37225 6.43772 9.55375 6.94579 9.55375H8.07372V0.253007H7.16495V0.687518C7.16495 1.15723 6.87384 1.12093 6.61925 0.976826C5.74591 0.398211 4.76409 0 3.8188 0C2.25586 0 0 0.687518 0 3.6543V25.4767C0.0376346 29.2762 2.03669 29.9648 4.03686 30C5.56438 30 6.29161 29.2047 6.87384 28.9143C7.27343 28.7339 7.56455 29.2047 7.56455 29.7833H8.36483V17.1176H9.67319V16.1759H4.10991V17.1176ZM17.1647 16.1759L18.5815 4.37812L20.1821 16.2122L17.1647 16.1759ZM24.1459 27.5392L20.7278 0.253007H18.038L14.6188 27.6118C14.4373 28.4809 14.4008 28.6976 13.0913 28.7702V29.6018H17.3097V28.8428C16.8383 28.879 16.3705 28.7367 16.0002 28.4446C15.8599 28.2836 15.7825 28.0778 15.7822 27.8648L17.0551 17.0813H20.3282L21.6731 27.8648C21.6731 28.5524 21.6011 28.8065 20.7643 28.8428H20.3647V29.6018H25.7465V28.8428H25.6004C24.5455 28.8428 24.2189 28.1905 24.1459 27.5392Z" fill="black"/>
</svg>
