<svg width="126" height="22" viewBox="0 0 126 22" fill="none" xmlns="http://www.w3.org/2000/svg">
<path fill-rule="evenodd" clip-rule="evenodd" d="M39.704 10.5063C39.704 16.7902 35.2808 21.0128 28.6974 21.0128C22.0132 21.0128 17.6908 16.89 17.6908 10.5063C17.6908 4.51762 22.424 -0.000170055 28.6974 -0.000170055C35.1799 -0.000170055 39.704 4.31694 39.704 10.5063ZM28.6963 1.66616C23.462 1.66616 21.1117 6.00533 21.1117 10.3287C21.1117 14.6952 23.1069 19.3622 28.6963 19.3622C34.2858 19.3622 36.2799 14.6511 36.2799 10.3287C36.2799 6.00638 33.9296 1.66616 28.6963 1.66616ZM11.4773 3.69391L11.5056 15.6398C11.5056 19.1069 9.36127 21.0128 5.47177 21.0128C2.15068 21.0128 0 19.1847 0 16.3511V16.1682L2.47848 15.9287V16.1514C2.46503 16.5709 2.53642 16.9888 2.68837 17.38C2.84031 17.7712 3.06969 18.1277 3.36275 18.4281C3.6558 18.7285 4.0065 18.9666 4.39382 19.1282C4.78114 19.2898 5.1971 19.3716 5.61676 19.3685C7.43438 19.3685 8.43355 18.0184 8.43355 15.5568V1.88364H5.77331V0.216263H14.168V1.88364H13.9684C13.8633 1.88364 11.4794 1.91621 11.4794 3.69496L11.4773 3.69391ZM105.653 17.0571H103.925V17.262C103.925 17.3408 103.891 19.1237 101.652 19.1237H94.5079V10.7122H99.758C101.98 10.7122 102.031 12.4458 102.031 12.5172V12.7232H104.03V7.03917H102.024V9.06167H94.5068V4.256C94.5068 4.15619 94.5457 1.87734 97.4465 1.87734H101.674C103.896 1.87734 103.936 3.63402 103.936 3.70546V3.88933H105.686V0.233074H88.5076V1.9015H91.4347V17.2578C91.4413 17.4632 91.4057 17.6678 91.3302 17.859C91.2546 18.0502 91.1408 18.2239 90.9956 18.3694C90.2349 19.13 88.7398 19.1363 88.701 19.1363H88.5013V20.8027H105.647L105.653 17.0571ZM51.5774 1.88364H51.3714C50.6367 1.88815 49.9247 2.13856 49.3489 2.59493C49.2056 2.74128 49.0932 2.91509 49.0186 3.10592C48.9441 3.29675 48.9088 3.50068 48.915 3.70546V12.6622C48.915 18.0794 51.9598 19.1899 54.5108 19.1899C58.0546 19.1899 60.1664 17.1128 60.1664 13.6341V1.88364H57.6827V0.216263H64.8449V1.88364H64.6453C64.5718 1.88364 62.3496 1.91621 62.3496 3.71702V13.6068C62.3496 18.3126 59.5108 21.0128 54.5108 21.0128C48.6208 21.0128 45.8429 18.4786 45.8429 13.0457V1.88364H43.1816V0.216263H51.5763L51.5774 1.88364ZM84.969 15.5568H83.3017V15.7564C83.3017 15.79 83.246 19.0901 81.0239 19.0901H74.223V3.70021C74.223 1.94983 76.298 1.85422 76.5029 1.84477H76.7183V0.222567H68.7124V1.88889H71.1908V17.2788C71.198 17.4991 71.1613 17.7187 71.0831 17.9249C71.0048 18.131 70.8864 18.3196 70.7349 18.4797C70.213 18.8958 69.5636 19.1192 68.8962 19.1122H68.6903V20.7795H84.947L84.969 15.5568ZM118.859 8.51743H118.861C122.233 9.69416 125.995 11.0337 126 15.1071C126 17.8346 124.072 21.0128 118.633 21.0128C115.593 21.0128 114.01 20.3792 113.077 19.8235V20.7743H110.899V15.0556H113.077V16.5276C113.077 18.7612 117.094 19.3612 118.505 19.3612C120.733 19.3612 123.122 18.5227 123.122 16.1725C123.122 13.5427 120.429 12.6118 117.596 11.6326L117.566 11.6221C114.388 10.5557 110.793 9.27705 110.793 5.33817C110.793 1.39824 114.454 -0.0012207 117.566 -0.0012207C119.922 -0.0012207 121.678 0.482077 123.006 1.47704V0.233074H125.011V5.77839H122.96V5.40016C122.96 2.66637 119.655 1.64409 117.572 1.64409C115.705 1.64409 113.682 2.44994 113.682 4.57225C113.682 6.69456 116.082 7.53928 118.859 8.51638V8.51743Z" fill="black"/>
</svg>
