<svg width="126" height="33" viewBox="0 0 126 33" fill="none" xmlns="http://www.w3.org/2000/svg">
<path fill-rule="evenodd" clip-rule="evenodd" d="M116.125 4.95878C116.125 2.21609 118.332 0 121.063 0C123.794 0 126 2.21609 126 4.95878C126 7.70146 123.794 9.91755 121.063 9.91755C118.332 9.91755 116.125 7.70146 116.125 4.95878ZM117.021 4.95878C117.021 7.19681 118.834 9.01796 121.063 9.01796C123.291 9.01796 125.105 7.19681 125.105 4.95878C125.105 2.72074 123.291 0.899601 121.063 0.899601C118.834 0.899601 117.021 2.72074 117.021 4.95878ZM121.608 6.14362C121.608 5.79255 121.892 5.48538 122.265 5.48538H124.012V4.38829H122.265C121.915 4.38829 121.608 4.10306 121.608 3.73005V1.97473H120.538V3.75199C120.538 4.10306 120.254 4.41024 119.883 4.41024H118.135V5.48538H119.883C120.232 5.48538 120.538 5.77062 120.538 6.14362V7.89894H121.608V6.14362ZM92.7689 4.41024V33H111.755V28.3923H97.1386V20.9102H109.592V16.5H97.1386V9.01796H111.755V4.41024H92.7689ZM68.9539 28.3703H74.1976C79.3976 28.3703 83.5924 24.0259 83.5924 18.6941C83.5924 13.3624 79.3756 9.03989 74.1976 9.03989H68.9539V28.3703ZM64.5842 4.38829H74.0447C81.8445 4.38829 88.0058 10.8391 88.0058 18.7161C88.0058 26.5931 81.8445 33 74.0447 33H64.5842V4.38829ZM45.1391 4.41024L33.319 32.9781H38.082L40.0265 28.0632H53.1138L55.0583 32.9781H59.8213L47.9794 4.41024H45.1391ZM46.5592 12.5286L51.06 23.5433H42.0584L46.5592 12.5286ZM14.2671 16.7633L25.0821 4.41024H28.5341V33H24.1644V12.4628L14.2671 23.609L4.36971 12.4628V33H0V4.41024H3.47392L14.2671 16.7633Z" fill="black"/>
</svg>
