<svg width="88" height="41" viewBox="0 0 88 41" fill="none" xmlns="http://www.w3.org/2000/svg">
<g clip-path="url(#clip0_275_401)">
<mask id="mask0_275_401" style="mask-type:luminance" maskUnits="userSpaceOnUse" x="2" y="0" width="85" height="21">
<path d="M87 0H2V20.9949H87V0Z" fill="white"/>
</mask>
<g mask="url(#mask0_275_401)">
<path d="M26.9329 20.3705H41.5821V17.3073H30.0173V11.9476H40.5277V8.91261H30.0173V3.65556H41.5821V0.592361H26.9329V20.3705Z" fill="black"/>
<path d="M69.7623 3.65175H76.8379V20.3667H79.9233V3.65175H86.9989V0.589836H69.7623V3.65175Z" fill="black"/>
<path d="M16.3186 13.512L2 0V20.3705H5.08563V7.31504L19.4042 20.9949V0.591102H16.3186V13.512Z" fill="black"/>
<path d="M62.0969 0.591152L56.4355 7.79849L50.7727 0.591152H46.7842L54.4582 10.2424L46.7842 20.3706H50.7727L56.4343 12.8543L62.0958 20.3719H66.0844L58.4091 10.2437L66.0855 0.591152H62.0969Z" fill="black"/>
</g>
</g>
<path d="M82.9502 40C81.0705 40 79.5177 39.1174 78.9456 38.5943V36.3223C79.4686 36.8617 81.1849 38.1203 82.9502 38.1203C84.6501 38.1203 85.353 37.3521 85.353 36.5675C85.353 35.9137 85.0097 35.456 83.6204 35.08L82.0839 34.6551C79.6648 33.9849 78.7985 32.9715 78.7985 31.435C78.7985 29.4899 80.7272 28.1659 83.1627 28.1659C84.7645 28.1659 86.1212 28.7544 86.8404 29.2938V31.5658C86.1866 30.9446 84.7809 30.0456 83.2281 30.0456C81.9041 30.0456 80.8907 30.5524 80.8907 31.3369C80.8907 32.0398 81.5118 32.3667 82.8358 32.7426L84.3723 33.1676C86.677 33.8051 87.4615 34.9166 87.4615 36.4858C87.4615 38.3164 85.7943 40 82.9502 40Z" fill="black"/>
<path d="M70.5381 33.3966C71.9929 33.3966 72.8428 32.8572 72.8428 31.8438C72.8428 30.8467 71.9929 30.291 70.5708 30.291H68.3642V33.3966H70.5381ZM66.3537 39.804V28.3622H70.6362C73.4313 28.3622 74.9187 29.866 74.9187 31.8438C74.9187 33.3802 74.0361 34.6062 72.3688 35.0965L76.3408 39.804H73.8072L70.0478 35.3254H68.3642V39.804H66.3537Z" fill="black"/>
<path d="M53.5297 39.804V28.3622H62.4052V30.291H55.5401V33.0533H61.7514V34.9821H55.5401V37.8752H62.4052V39.804H53.5297Z" fill="black"/>
<path d="M40.7054 39.804V28.3622H49.581V30.291H42.7159V33.0533H48.9271V34.9821H42.7159V37.8752H49.581V39.804H40.7054Z" fill="black"/>
<path d="M31.8104 33.3966C33.2652 33.3966 34.1151 32.8572 34.1151 31.8438C34.1151 30.8467 33.2652 30.291 31.8431 30.291H29.6365V33.3966H31.8104ZM27.626 39.804V28.3622H31.9085C34.7035 28.3622 36.191 29.866 36.191 31.8438C36.191 33.3802 35.3083 34.6062 33.6411 35.0965L37.613 39.804H35.0795L31.32 35.3254H29.6365V39.804H27.626Z" fill="black"/>
<path d="M18.4957 32.0071L16.8775 35.2272H20.1139L18.4957 32.0071ZM12.4642 39.8039L18.4957 28.0515L24.5272 39.8039H22.3369L20.9639 37.1396H16.0275L14.6545 39.8039H12.4642Z" fill="black"/>
<path d="M0 34.083C0 30.7812 2.64796 28.1659 6.16223 28.1659C7.76408 28.1659 9.02268 28.6726 9.92168 29.2447V31.4187C9.20248 30.8956 7.97657 30.1274 6.37472 30.1274C3.7758 30.1274 2.05952 31.8927 2.05952 34.083C2.05952 36.2569 3.7758 38.0386 6.37472 38.0386C7.97657 38.0386 9.23517 37.2867 9.92168 36.7473V38.9212C9.02268 39.4933 7.76408 40 6.16223 40C2.64796 40 0 37.3847 0 34.083Z" fill="black"/>
<defs>
<clipPath id="clip0_275_401">
<rect width="85" height="21" fill="white" transform="translate(2)"/>
</clipPath>
</defs>
</svg>
