<svg width="127" height="10" viewBox="0 0 127 10" fill="none" xmlns="http://www.w3.org/2000/svg">
<path fill-rule="evenodd" clip-rule="evenodd" d="M1.27952 1.15308C0.979351 0.416185 0.658614 0.242367 0 0.242367V0.0440666H2.85971V0.228167C2.36513 0.252159 2.20452 0.320218 2.20452 0.52831C2.20452 0.804951 2.33037 1.01304 5.07402 8.25613L7.77311 1.43266C7.90042 1.1472 7.98563 0.8451 8.02578 0.535165C8.02578 0.235022 7.64677 0.245304 7.34317 0.221312V0.0440666H9.75532L9.73181 0.241877C9.00513 0.299653 8.79653 0.470534 8.52035 1.15259L5.01624 9.53308C4.94768 9.69319 4.8899 9.75146 4.83163 9.75146C4.77385 9.75146 4.69158 9.68291 4.64751 9.56687L1.27952 1.15308ZM13.99 9.64227H11.145V9.44397H11.1891C11.9638 9.44397 11.974 8.93574 11.974 7.9222V2.64057C11.974 1.63781 11.8477 1.48749 11.1107 1.44343V1.25835H13.7383V1.46301C12.9191 1.46301 12.9088 1.67111 12.9088 2.98478V7.9222C12.9088 9.15754 12.9774 9.43369 14.0042 9.43369L13.99 9.64227ZM22.862 8.10679C22.4355 9.08948 21.4664 9.75489 19.9445 9.75489C17.3169 9.75489 15.7029 7.9462 15.7029 5.45594C15.7235 3.1253 17.358 1.11929 20.132 1.11929C20.9797 1.12581 21.8178 1.29848 22.599 1.62753C22.7288 1.67502 22.7631 1.7093 22.7631 1.82191L22.6813 3.50722H22.4967C22.4967 3.03325 22.3806 2.48389 22.0119 2.17004C21.4318 1.71223 20.7024 1.4861 19.965 1.53548C17.7062 1.53548 16.72 3.21736 16.72 5.23708C16.72 7.25729 17.8051 9.33136 20.0777 9.33136C21.3572 9.33136 22.1999 8.85054 22.6367 8.03188C22.7288 7.84729 22.7631 7.8233 22.8654 7.84729C22.9677 7.87128 22.9643 7.9222 22.8825 8.10679H22.862ZM31.5904 2.66456H31.3926C31.3275 2.02658 31.28 1.78813 30.2526 1.78813H28.6627V7.99075C28.6627 9.29415 28.7993 9.43369 29.7341 9.43369V9.64227H26.8646V9.44397C27.5775 9.44397 27.6696 9.10319 27.6696 8.23312V1.78715H26.3054C25.1997 1.78715 24.9578 1.82142 24.9406 2.66407H24.7325L24.6845 1.25884C24.6845 1.25884 25.7902 1.34403 26.2745 1.34403H30.093C30.601 1.35601 31.1093 1.33655 31.6149 1.28577L31.5904 2.66456ZM37.3368 1.13594C39.814 1.13594 41.6601 2.69541 41.6601 5.2645C41.6601 7.73468 39.9232 9.77496 37.2648 9.77496C34.2553 9.77496 32.9997 7.42082 32.9997 5.4388C32.9997 3.66439 34.2895 1.13594 37.3368 1.13594ZM37.2594 1.50463H37.2648C35.429 1.50463 34.0476 2.71597 34.0476 5.13817C34.0476 7.69746 35.593 9.34898 37.5753 9.34898C38.5683 9.34898 40.6191 8.78199 40.6191 5.59549C40.6059 2.96862 39.0325 1.53793 37.3152 1.50512L37.2594 1.50463ZM46.4198 1.2794C47.9897 1.2794 49.0474 1.98594 49.0474 3.32654C49.0474 4.42184 48.1498 5.34626 47.1807 5.66697C48.0102 5.97789 48.6924 7.87128 49.3818 8.59496C50.0713 9.31814 50.3646 9.42732 50.9512 9.42732L50.9649 9.64227H50.0096C48.8427 9.64227 48.4299 8.8574 47.8056 7.86443C47.6998 7.69844 47.593 7.51875 47.4848 7.3371L47.4123 7.21567C46.9995 6.52774 46.5539 5.84813 45.9972 5.81729L45.4781 5.77959C45.4203 5.77959 45.3964 5.77959 45.3964 5.88535V8.05196C45.3964 9.35535 45.6285 9.43761 46.4918 9.43761V9.6457H43.6761V9.4474C44.3195 9.41411 44.4762 9.33479 44.4816 8.14988V2.28265C44.4816 1.6853 44.1237 1.52177 43.5126 1.52177V1.2794H46.4198ZM46.2151 1.63781H46.0966C45.5687 1.63879 45.3964 1.65103 45.3964 1.83562V5.24736C45.3964 5.3634 45.3963 5.39768 45.5942 5.44174C45.8841 5.47699 46.1759 5.49658 46.4678 5.50001C47.4912 5.50001 48.1194 4.73912 48.1194 3.57576C48.1194 2.34043 47.3688 1.63781 46.2151 1.63781ZM55.5649 9.64227H52.7052V9.44397H52.7532C53.5245 9.44397 53.5377 8.93574 53.5377 7.9222V2.64057C53.5377 1.63781 53.4084 1.48749 52.671 1.44343V1.25835H55.302V1.46301C54.4833 1.46301 54.4695 1.67111 54.4695 2.98821V7.9222C54.4695 9.15754 54.5376 9.43369 55.5649 9.43369V9.64227ZM61.1747 1.11587C61.2427 1.11587 61.277 1.15993 61.4166 1.50463L64.0579 8.3286C64.3101 9.01065 64.5867 9.41019 65.3374 9.41019L65.3717 9.63199H62.7304V9.44397C63.1466 9.42047 63.3072 9.32842 63.3072 9.16782C63.3065 9.00725 63.2667 8.84928 63.1912 8.70757L62.3141 6.40093C62.3078 6.37931 62.2941 6.3606 62.2754 6.34807C62.2567 6.33554 62.2342 6.32998 62.2118 6.33238H59.8472C59.8207 6.33259 59.7951 6.34183 59.7746 6.35857C59.7542 6.37531 59.74 6.39855 59.7345 6.42443L59.1337 8.19884C59.023 8.48412 58.9486 8.7822 58.9124 9.08605C58.9124 9.32842 59.144 9.42732 59.5945 9.42732V9.63542H57.1721L57.2059 9.43761C57.933 9.37934 58.1548 9.11641 58.407 8.41379L60.9426 1.50463C61.0821 1.13594 61.1061 1.11587 61.1747 1.11587ZM60.9969 2.75661C60.9631 2.75661 60.9391 2.8046 60.9151 2.88294L59.9358 5.85842V5.89269C59.9368 5.90333 59.9419 5.91316 59.95 5.92011C59.9542 5.92368 59.959 5.92639 59.9642 5.92807C59.9694 5.92975 59.9749 5.93037 59.9804 5.9299H62.1026C62.1266 5.9299 62.1369 5.9299 62.1369 5.90591L61.0787 2.88294C61.0552 2.81439 61.0312 2.75661 60.9969 2.75661ZM65.8119 0.272724C66.2384 0.272724 66.6752 0.661979 66.6752 1.34452C66.6752 2.08141 66.1326 2.59993 65.31 2.73997V2.54509C65.9549 2.43933 66.211 2.04714 66.211 1.77099C66.211 1.49435 66.0881 1.34452 65.7296 1.13937C65.4877 1.01011 65.3511 0.917566 65.3511 0.688909C65.3572 0.572683 65.4091 0.463609 65.4955 0.385595C65.5819 0.307581 65.6956 0.266992 65.8119 0.272724ZM70.5715 9.76811C69.8774 9.81489 69.1853 9.65088 68.5859 9.29757V7.69697H68.794C68.8317 8.91811 69.671 9.35486 70.6842 9.35486C71.8276 9.35486 72.4279 8.61797 72.4279 7.92514C72.4279 7.03842 71.8956 6.50962 70.6979 5.74531C69.1045 4.74206 68.6917 3.99489 68.6917 3.17623C68.6917 2.00895 69.5888 1.12909 71.0323 1.12909C71.6568 1.11452 72.2774 1.2306 72.8544 1.46987V2.79383H72.6463C72.6144 2.54882 72.5405 2.31114 72.4279 2.09121C72.3598 1.97859 72.0254 1.50414 70.906 1.50414C70.0393 1.50414 69.4184 2.05693 69.4184 2.84181C69.4184 3.6262 69.9815 4.03944 71.285 4.88846C72.5885 5.73846 73.1889 6.57083 73.2129 7.44775C73.2026 8.81235 72.1517 9.75782 70.5715 9.75782V9.76811ZM80.1261 9.25987V7.554H80.3548C80.4605 8.99351 81.4262 9.43418 82.5794 9.43418C83.9069 9.43418 84.6267 8.56754 84.6267 7.69061C84.6267 6.66728 83.9681 6.0528 82.6205 5.19986C80.7984 4.0463 80.3616 3.15272 80.3616 2.30615C80.3616 0.968977 81.385 0 83.0911 0C83.7706 0.0279738 84.4428 0.152105 85.0875 0.368691V1.77735H84.8554C84.8289 1.50656 84.7501 1.24348 84.6233 1.00276C84.5346 0.866154 84.1287 0.320218 82.8389 0.320218C81.815 0.320218 81.0609 0.978769 81.0609 1.91004C81.0609 2.84181 81.7435 3.32997 83.2311 4.32245C84.7188 5.31542 85.3979 6.2227 85.3979 7.20539C85.3979 9.63836 82.9647 9.78818 82.3644 9.78818C81.5837 9.82181 80.8092 9.63517 80.1295 9.24959L80.1261 9.25987ZM93.1539 8.168V9.64178H87.575V9.43369C88.148 9.43369 88.3904 9.28386 88.3904 8.21255V2.22781C88.3904 1.69559 88.049 1.5012 87.411 1.5012V1.2794C87.8718 1.3171 88.5201 1.33767 89.117 1.33767H91.5057C91.7378 1.33767 92.8709 1.30339 92.8709 1.28968L92.8298 2.70912H92.6251C92.5771 1.83219 92.0585 1.76413 91.0449 1.76413H89.4275C89.3153 1.76413 89.3016 1.79841 89.3016 1.87675V4.88601C89.3016 4.94379 89.3016 5.00205 89.3697 5.00205H91.3455C91.7138 5.00205 91.8504 4.87573 91.9185 4.54131H92.13V6.30496H91.9116C91.8915 5.91325 91.8778 5.54456 91.2569 5.47602C90.9156 5.44174 89.5504 5.41824 89.3766 5.41824C89.3656 5.41718 89.3545 5.41856 89.344 5.4223C89.3336 5.42603 89.3242 5.43202 89.3164 5.43983C89.3086 5.44765 89.3026 5.4571 89.2988 5.4675C89.2951 5.4779 89.2937 5.48901 89.2948 5.50001V8.67966C89.3183 9.25644 89.3286 9.25644 90.7584 9.25644C91.2226 9.25644 92.2358 9.25644 92.4645 9.13012C92.8058 8.97001 92.9047 8.66987 92.9389 8.18513L93.1539 8.168ZM102.08 8.11022C101.654 9.08948 100.685 9.75831 99.1627 9.75831C96.5322 9.75831 94.9182 7.94962 94.9182 5.45937C94.9182 3.12873 96.5557 1.12272 99.313 1.12272C100.161 1.12771 100.999 1.30044 101.78 1.63096C101.906 1.67502 101.944 1.71272 101.944 1.82534L101.862 3.51064H101.685C101.685 3.03668 101.569 2.48732 101.2 2.17347C100.62 1.71555 99.8899 1.48941 99.1524 1.53891C96.9278 1.53891 95.9348 3.22078 95.9348 5.2405C95.9348 7.26071 97.0165 9.33479 99.2891 9.33479C100.572 9.33479 101.411 8.85005 101.848 8.03139C101.944 7.84729 101.978 7.82673 102.08 7.84729C102.183 7.86786 102.172 7.9222 102.09 8.10679L102.08 8.11022ZM106.772 1.27989C108.338 1.27989 109.399 1.98594 109.399 3.32654C109.399 4.42184 108.499 5.34626 107.53 5.66697C108.362 5.97789 109.041 7.87128 109.734 8.59496C110.427 9.31814 110.713 9.42732 111.304 9.42732L111.293 9.64521H110.335C109.171 9.64521 108.754 8.86082 108.134 7.86786C107.601 7.03891 107.059 5.86184 106.322 5.82071L105.823 5.77959C105.766 5.77959 105.745 5.77959 105.745 5.88535V8.05196C105.745 9.35535 105.974 9.43761 106.84 9.43761V9.6457H104.025V9.4474C104.672 9.41411 104.828 9.33479 104.834 8.14988L104.834 2.28265C104.834 1.6853 104.476 1.52177 103.865 1.52177V1.2794L106.772 1.27989ZM106.55 1.63732H106.435C105.902 1.6383 105.731 1.65054 105.731 1.83562V5.24736C105.731 5.3634 105.731 5.39768 105.926 5.44174C106.217 5.47709 106.509 5.49654 106.803 5.50001C107.827 5.50001 108.451 4.73912 108.451 3.57576C108.451 2.34043 107.7 1.63732 106.55 1.63732ZM118.19 8.168L118.169 9.6457H112.603V9.43761C113.18 9.43761 113.423 9.28729 113.423 8.21598V2.22781C113.423 1.69559 113.081 1.5012 112.443 1.5012V1.2794C112.904 1.3171 113.552 1.33767 114.149 1.33767H116.538C116.77 1.33767 117.903 1.30339 117.903 1.28968L117.855 2.70912H117.65C117.602 1.83219 117.084 1.76413 116.07 1.76413H114.453C114.34 1.76413 114.327 1.79841 114.327 1.87675V4.88601C114.327 4.94379 114.326 5.00205 114.398 5.00205H116.357C116.729 5.00205 116.865 4.87573 116.934 4.54131H117.155V6.30496H116.934C116.913 5.91325 116.9 5.54456 116.278 5.47602C115.938 5.44174 114.572 5.41824 114.398 5.41824C114.387 5.41718 114.376 5.41856 114.366 5.4223C114.356 5.42603 114.346 5.43202 114.338 5.43983C114.33 5.44765 114.324 5.4571 114.321 5.4675C114.317 5.4779 114.316 5.48901 114.317 5.50001V8.67966C114.34 9.25644 114.354 9.25644 115.784 9.25644C116.245 9.25644 117.258 9.25644 117.49 9.13012C117.831 8.97001 117.93 8.66987 117.964 8.18513L118.19 8.168ZM126.652 2.66848H126.454C126.386 2.02364 126.341 1.79204 125.314 1.79204H123.714V7.99075C123.714 9.29463 123.85 9.43418 124.785 9.43418V9.64276H121.926V9.44446C122.639 9.44446 122.731 9.10368 122.731 8.23361V1.78715H121.366C120.257 1.78715 120.001 1.82142 119.981 2.66407H119.769L119.721 1.25884C119.721 1.25884 120.851 1.3269 121.349 1.3269H125.154C125.662 1.33886 126.17 1.3194 126.676 1.26863L126.652 2.66848Z" fill="black"/>
</svg>
